<svg xmlns="http://www.w3.org/2000/svg" version="1.1" xmlns:xlink="http://www.w3.org/1999/xlink" xmlns:svgjs="http://svgjs.dev/svgjs" width="1000" height="108" viewBox="0 0 1000 108"><g transform="matrix(1,0,0,1,-0.6060605962196632,0.43170109552177394)"><svg viewBox="0 0 396 43" data-background-color="#ffffff" preserveAspectRatio="xMidYMid meet" height="108" width="1000" xmlns="http://www.w3.org/2000/svg" xmlns:xlink="http://www.w3.org/1999/xlink"><defs></defs><g id="tight-bounds" transform="matrix(1,0,0,1,0.2400000038970802,-0.17188099173552018)"><svg viewBox="0 0 395.52 43.34376198347107" height="43.34376198347107" width="395.52"><g><svg viewBox="0 0 395.52 43.34376198347107" height="43.34376198347107" width="395.52"><g><svg viewBox="0 0 395.52 43.34376198347107" height="43.34376198347107" width="395.52"><g><svg viewBox="0 0 395.52 43.34376198347107" height="43.34376198347107" width="395.52"><g><svg viewBox="0 0 395.52 43.34376198347107" height="43.34376198347107" width="395.52"><g transform="matrix(1,0,0,1,0,0)"><svg width="395.52" viewBox="0.4000000059604645 -32.650001525878906 302.4700012207031 33.150001525878906" height="43.34376198347107" data-palette-color="#000000"><path d="M19.35-32.2L29.2 0 22.3 0 21.5-4.2 20.65-7.2 14.35-7.35 8.8-7.2 7.95-4.55 7.1 0 0.4 0 11.3-32.2 19.35-32.2ZM14.85-12.35L19.2-12.45 15.4-25.85 14.95-25.85 10.55-12.45 14.85-12.35ZM50.8-12.8Q54.7-6.6 58.55-1.6L58.55-1.6 58.45-0.85Q55.2 0.3 51.8 0.5L51.8 0.5 51.1-0.05Q47.5-6.25 45.25-10.85L45.25-10.85 40.4-10.85 40.4-10.2 40.7 0 33.9 0 34.25-9.6 33.9-32.2 46.25-32.25Q51.3-32.25 54.05-29.78 56.8-27.3 56.8-22.7L56.8-22.7Q56.8-19.6 55.22-17.03 53.65-14.45 50.8-12.8L50.8-12.8ZM40.7-27.05L40.5-16.1 45.45-15.9Q49.7-17.35 49.7-22.05L49.7-22.05Q49.7-24.6 48.32-25.88 46.95-27.15 44.1-27.25L44.1-27.25 40.7-27.05ZM75.8-32.6Q80.5-32.6 84.25-30.65L84.25-30.65 83.05-25 82.5-24.75Q81-25.8 79.2-26.4 77.4-27 75.5-27L75.5-27Q67.55-27 67.55-16.55L67.55-16.55Q67.55-10.9 69.62-8.08 71.7-5.25 75.7-5.25L75.7-5.25Q77.55-5.25 79.52-5.83 81.5-6.4 83.09-7.4L83.09-7.4 83.7-7.05 83.15-1.3Q79.34 0.45 75.15 0.45L75.15 0.45Q67.95 0.45 64.17-3.75 60.4-7.95 60.4-15.8L60.4-15.8Q60.4-23.8 64.42-28.2 68.45-32.6 75.8-32.6L75.8-32.6ZM108.89-32.2L109.29-31.65 108.89-26.6 102.84-26.9 100.84-26.9 100.59-10.2 100.89 0 94.09 0 94.44-9.6 94.19-26.9 92.19-26.9 86.04-26.6 85.59-27.15 86.04-32.2 108.89-32.2ZM120.59-32.2L120.19-10.2 120.49 0 113.69 0 114.04-9.6 113.69-32.2 120.59-32.2ZM140.89-32.6Q145.59-32.6 149.34-30.65L149.34-30.65 148.14-25 147.59-24.75Q146.09-25.8 144.29-26.4 142.49-27 140.59-27L140.59-27Q132.64-27 132.64-16.55L132.64-16.55Q132.64-10.9 134.71-8.08 136.79-5.25 140.79-5.25L140.79-5.25Q142.64-5.25 144.61-5.83 146.59-6.4 148.19-7.4L148.19-7.4 148.79-7.05 148.24-1.3Q144.44 0.45 140.24 0.45L140.24 0.45Q133.04 0.45 129.26-3.75 125.49-7.95 125.49-15.8L125.49-15.8Q125.49-23.8 129.51-28.2 133.54-32.6 140.89-32.6L140.89-32.6ZM178.38-16.7Q181.68-15.9 183.26-14.03 184.83-12.15 184.83-9.1L184.83-9.1Q184.83 0.25 170.18 0.25L170.18 0.25Q165.88 0.25 161.38 0L161.38 0 161.73-9.6 161.38-32.2 172.83-32.25Q177.78-32.25 180.53-30.18 183.28-28.1 183.28-24.2L183.28-24.2Q183.28-21.6 182.01-19.65 180.73-17.7 178.38-16.7L178.38-16.7ZM176.33-23.3Q176.33-25.5 175.03-26.43 173.73-27.35 170.48-27.35L170.48-27.35 168.03-27.35 167.88-18.6 172.58-18.45Q174.48-18.95 175.41-20.1 176.33-21.25 176.33-23.3L176.33-23.3ZM171.33-4.6Q174.48-4.6 176.21-5.85 177.93-7.1 177.93-9.45L177.93-9.45Q177.93-13 173.33-13.85L173.33-13.85 167.78-13.75 167.73-10.2 167.88-4.8Q169.63-4.6 171.33-4.6L171.33-4.6ZM203.08-32.65Q209.88-32.65 213.56-28.53 217.23-24.4 217.23-16.8L217.23-16.8Q217.23-8.5 213.23-4 209.23 0.5 201.93 0.5L201.93 0.5Q195.18 0.5 191.5-3.73 187.83-7.95 187.83-15.7L187.83-15.7Q187.83-23.85 191.81-28.25 195.78-32.65 203.08-32.65L203.08-32.65ZM202.48-27.2Q198.48-27.2 196.68-24.7 194.88-22.2 194.88-16.55L194.88-16.55Q194.88-10.1 196.66-7.35 198.43-4.6 202.53-4.6L202.53-4.6Q206.53-4.6 208.33-7.13 210.13-9.65 210.13-15.4L210.13-15.4Q210.13-21.75 208.36-24.48 206.58-27.2 202.48-27.2L202.48-27.2ZM235.23-32.65Q242.03-32.65 245.7-28.53 249.38-24.4 249.38-16.8L249.38-16.8Q249.38-8.5 245.38-4 241.38 0.5 234.08 0.5L234.08 0.5Q227.33 0.5 223.65-3.73 219.98-7.95 219.98-15.7L219.98-15.7Q219.98-23.85 223.95-28.25 227.93-32.65 235.23-32.65L235.23-32.65ZM234.63-27.2Q230.63-27.2 228.83-24.7 227.03-22.2 227.03-16.55L227.03-16.55Q227.03-10.1 228.8-7.35 230.58-4.6 234.68-4.6L234.68-4.6Q238.68-4.6 240.48-7.13 242.28-9.65 242.28-15.4L242.28-15.4Q242.28-21.75 240.5-24.48 238.73-27.2 234.63-27.2L234.63-27.2ZM267.78-17Q273.13-9.55 280.13-1.4L280.13-1.4 280.03-0.65Q277.23 0.05 273.43 0.5L273.43 0.5 272.63 0.1Q266.08-8.6 260.98-16.6L260.98-16.6 260.88-10.2 261.13 0 254.38 0 254.73-9.6 254.38-32.2 261.23-32.2 260.98-17.25 270.03-29.1 271.88-32.2 279.18-32.2 267.78-17ZM293.92-32.6Q298.02-32.6 302.07-30.95L302.07-30.95 300.97-25.1 299.97-24.7Q298.27-25.9 296.45-26.6 294.62-27.3 293.12-27.3L293.12-27.3Q291.12-27.3 289.92-26.23 288.72-25.15 288.72-23.75L288.72-23.75Q288.72-22.3 290.05-21.3 291.37-20.3 294.22-18.95L294.22-18.95Q296.97-17.7 298.7-16.63 300.42-15.55 301.65-13.8 302.87-12.05 302.87-9.5L302.87-9.5Q302.87-6.75 301.37-4.48 299.87-2.2 297.12-0.88 294.37 0.45 290.77 0.45L290.77 0.45Q286.02 0.45 281.22-1.6L281.22-1.6 282.17-7.9 282.92-8.3Q284.92-6.55 287.3-5.63 289.67-4.7 291.52-4.7L291.52-4.7Q293.72-4.7 294.95-5.78 296.17-6.85 296.17-8.35L296.17-8.35Q296.17-9.95 294.85-10.95 293.52-11.95 290.57-13.35L290.57-13.35Q287.87-14.55 286.17-15.6 284.47-16.65 283.27-18.4 282.07-20.15 282.07-22.65L282.07-22.65Q282.07-25.45 283.57-27.73 285.07-30 287.77-31.3 290.47-32.6 293.92-32.6L293.92-32.6Z" opacity="1" transform="matrix(1,0,0,1,0,0)" fill="#000000" class="undefined-text-0" data-fill-palette-color="primary" id="text-0"></path></svg></g></svg></g></svg></g></svg></g></svg></g></svg><rect width="395.52" height="43.34376198347107" fill="none" stroke="none" visibility="hidden"></rect></g></svg></g></svg>